<mxfile host="app.diagrams.net" modified="2023-12-09T00:55:34.769Z" agent="Mozilla/5.0 (Macintosh; Intel Mac OS X 10_15_7) AppleWebKit/537.36 (KHTML, like Gecko) Chrome/119.0.0.0 Safari/537.36" etag="ZnX3SjU_RwcCqPvS0FWq" version="22.1.7" type="device">
  <diagram name="Page-1" id="LLCL9CzJEQx-QuuyP3N0">
    <mxGraphModel dx="1166" dy="610" grid="1" gridSize="10" guides="1" tooltips="1" connect="1" arrows="1" fold="1" page="1" pageScale="1" pageWidth="700" pageHeight="1000" background="none" math="0" shadow="0">
      <root>
        <mxCell id="0" />
        <mxCell id="1" parent="0" />
        <mxCell id="OWHG8vRwZnsmFtBLzndF-63" value="" style="edgeStyle=orthogonalEdgeStyle;rounded=0;orthogonalLoop=1;jettySize=auto;html=1;" parent="1" source="OWHG8vRwZnsmFtBLzndF-61" target="OWHG8vRwZnsmFtBLzndF-35" edge="1">
          <mxGeometry relative="1" as="geometry" />
        </mxCell>
        <mxCell id="UQHUEZWe2o5oHCd7jWrO-1" value="Working On the other side of this" style="whiteSpace=wrap;html=1;fillColor=#6a00ff;fontColor=#ffffff;strokeColor=#3700CC;verticalAlign=top;" vertex="1" parent="1">
          <mxGeometry x="350" width="140" height="110" as="geometry" />
        </mxCell>
        <mxCell id="OWHG8vRwZnsmFtBLzndF-68" value="Planned" style="whiteSpace=wrap;fillColor=#1ba1e2;strokeColor=#006EAF;align=center;labelPosition=center;verticalLabelPosition=middle;verticalAlign=top;horizontal=1;html=1;fontColor=#030303;" parent="1" vertex="1">
          <mxGeometry x="320" y="370" width="200" height="230" as="geometry" />
        </mxCell>
        <mxCell id="OWHG8vRwZnsmFtBLzndF-5" value="" style="edgeStyle=orthogonalEdgeStyle;rounded=0;orthogonalLoop=1;jettySize=auto;html=1;" parent="1" source="OWHG8vRwZnsmFtBLzndF-1" target="OWHG8vRwZnsmFtBLzndF-4" edge="1">
          <mxGeometry relative="1" as="geometry" />
        </mxCell>
        <mxCell id="OWHG8vRwZnsmFtBLzndF-19" value="" style="edgeStyle=orthogonalEdgeStyle;rounded=0;orthogonalLoop=1;jettySize=auto;html=1;" parent="1" source="OWHG8vRwZnsmFtBLzndF-1" target="OWHG8vRwZnsmFtBLzndF-18" edge="1">
          <mxGeometry relative="1" as="geometry" />
        </mxCell>
        <mxCell id="OWHG8vRwZnsmFtBLzndF-1" value="Email change initiated." style="rounded=0;whiteSpace=wrap;html=1;fillColor=#fff2cc;strokeColor=#d6b656;" parent="1" vertex="1">
          <mxGeometry x="40" y="40" width="120" height="60" as="geometry" />
        </mxCell>
        <mxCell id="OWHG8vRwZnsmFtBLzndF-4" value="Failed return email change error" style="whiteSpace=wrap;html=1;rounded=0;fillColor=#f8cecc;strokeColor=#b85450;" parent="1" vertex="1">
          <mxGeometry x="200" y="160" width="120" height="60" as="geometry" />
        </mxCell>
        <mxCell id="OWHG8vRwZnsmFtBLzndF-9" value="" style="edgeStyle=orthogonalEdgeStyle;rounded=0;orthogonalLoop=1;jettySize=auto;html=1;" parent="1" source="OWHG8vRwZnsmFtBLzndF-6" target="OWHG8vRwZnsmFtBLzndF-8" edge="1">
          <mxGeometry relative="1" as="geometry" />
        </mxCell>
        <mxCell id="OWHG8vRwZnsmFtBLzndF-45" value="" style="edgeStyle=orthogonalEdgeStyle;rounded=0;orthogonalLoop=1;jettySize=auto;html=1;" parent="1" source="OWHG8vRwZnsmFtBLzndF-6" target="OWHG8vRwZnsmFtBLzndF-12" edge="1">
          <mxGeometry relative="1" as="geometry" />
        </mxCell>
        <mxCell id="OWHG8vRwZnsmFtBLzndF-6" value="Send verification email to prev email containing override extension (30d)" style="rounded=0;whiteSpace=wrap;html=1;fillColor=#dae8fc;strokeColor=#6c8ebf;" parent="1" vertex="1">
          <mxGeometry x="360" y="40" width="120" height="60" as="geometry" />
        </mxCell>
        <mxCell id="OWHG8vRwZnsmFtBLzndF-15" value="" style="edgeStyle=orthogonalEdgeStyle;rounded=0;orthogonalLoop=1;jettySize=auto;html=1;" parent="1" source="OWHG8vRwZnsmFtBLzndF-8" target="OWHG8vRwZnsmFtBLzndF-14" edge="1">
          <mxGeometry relative="1" as="geometry" />
        </mxCell>
        <mxCell id="OWHG8vRwZnsmFtBLzndF-47" value="" style="edgeStyle=orthogonalEdgeStyle;rounded=0;orthogonalLoop=1;jettySize=auto;html=1;" parent="1" source="OWHG8vRwZnsmFtBLzndF-8" target="OWHG8vRwZnsmFtBLzndF-16" edge="1">
          <mxGeometry relative="1" as="geometry" />
        </mxCell>
        <mxCell id="OWHG8vRwZnsmFtBLzndF-8" value="Send email to new email confirming the change." style="whiteSpace=wrap;html=1;rounded=0;fillColor=#dae8fc;strokeColor=#6c8ebf;" parent="1" vertex="1">
          <mxGeometry x="520" y="40" width="120" height="60" as="geometry" />
        </mxCell>
        <mxCell id="OWHG8vRwZnsmFtBLzndF-12" value="Failed return email send error" style="whiteSpace=wrap;html=1;fillColor=#f8cecc;strokeColor=#b85450;rounded=0;" parent="1" vertex="1">
          <mxGeometry x="360" y="160" width="120" height="60" as="geometry" />
        </mxCell>
        <mxCell id="OWHG8vRwZnsmFtBLzndF-14" value="Email changed" style="whiteSpace=wrap;html=1;fillColor=#d5e8d4;strokeColor=#82b366;rounded=0;" parent="1" vertex="1">
          <mxGeometry x="680" y="40" width="120" height="60" as="geometry" />
        </mxCell>
        <mxCell id="OWHG8vRwZnsmFtBLzndF-16" value="Failed return email send error" style="whiteSpace=wrap;html=1;fillColor=#f8cecc;strokeColor=#b85450;rounded=0;" parent="1" vertex="1">
          <mxGeometry x="520" y="160" width="120" height="60" as="geometry" />
        </mxCell>
        <mxCell id="OWHG8vRwZnsmFtBLzndF-20" value="" style="edgeStyle=orthogonalEdgeStyle;rounded=0;orthogonalLoop=1;jettySize=auto;html=1;" parent="1" source="OWHG8vRwZnsmFtBLzndF-18" target="OWHG8vRwZnsmFtBLzndF-6" edge="1">
          <mxGeometry relative="1" as="geometry" />
        </mxCell>
        <mxCell id="OWHG8vRwZnsmFtBLzndF-18" value="Change email in database." style="whiteSpace=wrap;html=1;fillColor=#dae8fc;strokeColor=#6c8ebf;rounded=0;" parent="1" vertex="1">
          <mxGeometry x="200" y="40" width="120" height="60" as="geometry" />
        </mxCell>
        <mxCell id="OWHG8vRwZnsmFtBLzndF-30" value="" style="edgeStyle=orthogonalEdgeStyle;rounded=0;orthogonalLoop=1;jettySize=auto;html=1;" parent="1" source="OWHG8vRwZnsmFtBLzndF-28" edge="1">
          <mxGeometry relative="1" as="geometry">
            <mxPoint x="200" y="310" as="targetPoint" />
          </mxGeometry>
        </mxCell>
        <mxCell id="OWHG8vRwZnsmFtBLzndF-28" value="Password change requested.&lt;br&gt;input (email)" style="whiteSpace=wrap;html=1;fillColor=#fff2cc;strokeColor=#d6b656;" parent="1" vertex="1">
          <mxGeometry x="40" y="280" width="120" height="60" as="geometry" />
        </mxCell>
        <mxCell id="OWHG8vRwZnsmFtBLzndF-34" value="" style="edgeStyle=orthogonalEdgeStyle;rounded=0;orthogonalLoop=1;jettySize=auto;html=1;" parent="1" source="OWHG8vRwZnsmFtBLzndF-31" target="OWHG8vRwZnsmFtBLzndF-33" edge="1">
          <mxGeometry relative="1" as="geometry" />
        </mxCell>
        <mxCell id="OWHG8vRwZnsmFtBLzndF-36" value="" style="edgeStyle=orthogonalEdgeStyle;rounded=0;orthogonalLoop=1;jettySize=auto;html=1;" parent="1" source="OWHG8vRwZnsmFtBLzndF-31" target="OWHG8vRwZnsmFtBLzndF-35" edge="1">
          <mxGeometry relative="1" as="geometry" />
        </mxCell>
        <mxCell id="OWHG8vRwZnsmFtBLzndF-31" value="Email with 6 digit code sent to email address" style="whiteSpace=wrap;html=1;fillColor=#dae8fc;strokeColor=#6c8ebf;" parent="1" vertex="1">
          <mxGeometry x="200" y="280" width="120" height="60" as="geometry" />
        </mxCell>
        <mxCell id="OWHG8vRwZnsmFtBLzndF-33" value="Failed return email send error" style="whiteSpace=wrap;html=1;fillColor=#f8cecc;strokeColor=#b85450;" parent="1" vertex="1">
          <mxGeometry x="200" y="400" width="120" height="60" as="geometry" />
        </mxCell>
        <mxCell id="OWHG8vRwZnsmFtBLzndF-40" value="" style="edgeStyle=orthogonalEdgeStyle;rounded=0;orthogonalLoop=1;jettySize=auto;html=1;" parent="1" source="OWHG8vRwZnsmFtBLzndF-35" target="OWHG8vRwZnsmFtBLzndF-39" edge="1">
          <mxGeometry relative="1" as="geometry" />
        </mxCell>
        <mxCell id="OWHG8vRwZnsmFtBLzndF-35" value="User enters code" style="whiteSpace=wrap;html=1;fillColor=#fff2cc;strokeColor=#d6b656;" parent="1" vertex="1">
          <mxGeometry x="360" y="280" width="120" height="60" as="geometry" />
        </mxCell>
        <mxCell id="OWHG8vRwZnsmFtBLzndF-42" value="" style="edgeStyle=orthogonalEdgeStyle;rounded=0;orthogonalLoop=1;jettySize=auto;html=1;" parent="1" source="OWHG8vRwZnsmFtBLzndF-39" target="OWHG8vRwZnsmFtBLzndF-41" edge="1">
          <mxGeometry relative="1" as="geometry" />
        </mxCell>
        <mxCell id="OWHG8vRwZnsmFtBLzndF-44" value="" style="edgeStyle=orthogonalEdgeStyle;rounded=0;orthogonalLoop=1;jettySize=auto;html=1;" parent="1" source="OWHG8vRwZnsmFtBLzndF-39" target="OWHG8vRwZnsmFtBLzndF-43" edge="1">
          <mxGeometry relative="1" as="geometry" />
        </mxCell>
        <mxCell id="OWHG8vRwZnsmFtBLzndF-39" value="Code is validated" style="whiteSpace=wrap;html=1;fillColor=#dae8fc;strokeColor=#6c8ebf;" parent="1" vertex="1">
          <mxGeometry x="520" y="280" width="120" height="60" as="geometry" />
        </mxCell>
        <mxCell id="OWHG8vRwZnsmFtBLzndF-49" value="" style="edgeStyle=orthogonalEdgeStyle;rounded=0;orthogonalLoop=1;jettySize=auto;html=1;" parent="1" source="OWHG8vRwZnsmFtBLzndF-41" target="OWHG8vRwZnsmFtBLzndF-48" edge="1">
          <mxGeometry relative="1" as="geometry" />
        </mxCell>
        <mxCell id="OWHG8vRwZnsmFtBLzndF-41" value="User enters new password" style="whiteSpace=wrap;html=1;fillColor=#fff2cc;strokeColor=#d6b656;" parent="1" vertex="1">
          <mxGeometry x="680" y="280" width="120" height="60" as="geometry" />
        </mxCell>
        <mxCell id="OWHG8vRwZnsmFtBLzndF-62" value="" style="edgeStyle=orthogonalEdgeStyle;rounded=0;orthogonalLoop=1;jettySize=auto;html=1;" parent="1" source="OWHG8vRwZnsmFtBLzndF-43" target="OWHG8vRwZnsmFtBLzndF-61" edge="1">
          <mxGeometry relative="1" as="geometry" />
        </mxCell>
        <mxCell id="OWHG8vRwZnsmFtBLzndF-43" value="Code is invalid code validation error" style="whiteSpace=wrap;html=1;fillColor=#f8cecc;strokeColor=#b85450;" parent="1" vertex="1">
          <mxGeometry x="520" y="400" width="120" height="60" as="geometry" />
        </mxCell>
        <mxCell id="OWHG8vRwZnsmFtBLzndF-51" value="" style="edgeStyle=orthogonalEdgeStyle;rounded=0;orthogonalLoop=1;jettySize=auto;html=1;" parent="1" source="OWHG8vRwZnsmFtBLzndF-48" target="OWHG8vRwZnsmFtBLzndF-50" edge="1">
          <mxGeometry relative="1" as="geometry" />
        </mxCell>
        <mxCell id="OWHG8vRwZnsmFtBLzndF-53" value="" style="edgeStyle=orthogonalEdgeStyle;rounded=0;orthogonalLoop=1;jettySize=auto;html=1;" parent="1" source="OWHG8vRwZnsmFtBLzndF-48" target="OWHG8vRwZnsmFtBLzndF-52" edge="1">
          <mxGeometry relative="1" as="geometry" />
        </mxCell>
        <mxCell id="OWHG8vRwZnsmFtBLzndF-48" value="Password is changed in db (hashed)" style="whiteSpace=wrap;html=1;fillColor=#dae8fc;strokeColor=#6c8ebf;" parent="1" vertex="1">
          <mxGeometry x="840" y="280" width="120" height="60" as="geometry" />
        </mxCell>
        <mxCell id="OWHG8vRwZnsmFtBLzndF-50" value="DB change error" style="whiteSpace=wrap;html=1;fillColor=#f8cecc;strokeColor=#b85450;" parent="1" vertex="1">
          <mxGeometry x="840" y="400" width="120" height="60" as="geometry" />
        </mxCell>
        <mxCell id="OWHG8vRwZnsmFtBLzndF-55" value="" style="edgeStyle=orthogonalEdgeStyle;rounded=0;orthogonalLoop=1;jettySize=auto;html=1;" parent="1" source="OWHG8vRwZnsmFtBLzndF-52" target="OWHG8vRwZnsmFtBLzndF-54" edge="1">
          <mxGeometry relative="1" as="geometry" />
        </mxCell>
        <mxCell id="OWHG8vRwZnsmFtBLzndF-57" value="" style="edgeStyle=orthogonalEdgeStyle;rounded=0;orthogonalLoop=1;jettySize=auto;html=1;" parent="1" source="OWHG8vRwZnsmFtBLzndF-52" target="OWHG8vRwZnsmFtBLzndF-56" edge="1">
          <mxGeometry relative="1" as="geometry" />
        </mxCell>
        <mxCell id="OWHG8vRwZnsmFtBLzndF-52" value="Send email to user confirming email change&lt;br&gt;(user can revert 30d)" style="whiteSpace=wrap;html=1;fillColor=#dae8fc;strokeColor=#6c8ebf;" parent="1" vertex="1">
          <mxGeometry x="1000" y="280" width="120" height="60" as="geometry" />
        </mxCell>
        <mxCell id="OWHG8vRwZnsmFtBLzndF-54" value="Failed return email send error" style="whiteSpace=wrap;html=1;fillColor=#f8cecc;strokeColor=#b85450;" parent="1" vertex="1">
          <mxGeometry x="1000" y="400" width="120" height="60" as="geometry" />
        </mxCell>
        <mxCell id="OWHG8vRwZnsmFtBLzndF-56" value="Password changed" style="whiteSpace=wrap;html=1;fillColor=#d5e8d4;strokeColor=#82b366;" parent="1" vertex="1">
          <mxGeometry x="1160" y="280" width="120" height="60" as="geometry" />
        </mxCell>
        <mxCell id="OWHG8vRwZnsmFtBLzndF-67" value="" style="edgeStyle=orthogonalEdgeStyle;rounded=0;orthogonalLoop=1;jettySize=auto;html=1;" parent="1" source="OWHG8vRwZnsmFtBLzndF-61" target="OWHG8vRwZnsmFtBLzndF-66" edge="1">
          <mxGeometry relative="1" as="geometry" />
        </mxCell>
        <mxCell id="OWHG8vRwZnsmFtBLzndF-61" value="User has not attempted to enter different code more than 8 times" style="whiteSpace=wrap;html=1;fillColor=#e1d5e7;strokeColor=#9673a6;" parent="1" vertex="1">
          <mxGeometry x="360" y="400" width="120" height="60" as="geometry" />
        </mxCell>
        <mxCell id="OWHG8vRwZnsmFtBLzndF-66" value="User account password has hold applied. IP address attempting changes is blacklisted" style="whiteSpace=wrap;html=1;fillColor=#f8cecc;strokeColor=#b85450;" parent="1" vertex="1">
          <mxGeometry x="340" y="520" width="160" height="60" as="geometry" />
        </mxCell>
      </root>
    </mxGraphModel>
  </diagram>
</mxfile>
